<svg width="17" height="18" viewBox="0 0 17 18" fill="none" xmlns="http://www.w3.org/2000/svg">
<path d="M6.616 10.442C6.758 10.442 6.87667 10.3943 6.972 10.299C7.068 10.203 7.116 10.084 7.116 9.942V7.116C7.116 6.974 7.068 6.855 6.972 6.759C6.876 6.663 6.757 6.61533 6.615 6.616C6.473 6.61667 6.35433 6.66433 6.259 6.759C6.16367 6.85367 6.116 6.97267 6.116 7.116V9.942C6.116 10.084 6.16367 10.203 6.259 10.299C6.355 10.3943 6.474 10.442 6.616 10.442ZM2.327 13.77V9.328C1.637 8.98333 1.077 8.49 0.647 7.848C0.215667 7.206 0 6.49833 0 5.725C0 4.693 0.362 3.81433 1.086 3.089C1.80867 2.363 2.68633 2 3.719 2C3.91567 2 4.11667 2.01667 4.322 2.05C4.52733 2.08333 4.72833 2.125 4.925 2.175L5.098 2.214L5.194 2.059C5.55933 1.453 6.02733 0.958333 6.598 0.575C7.16867 0.191667 7.80267 0 8.5 0C9.19733 0 9.83133 0.191667 10.402 0.575C10.9727 0.958333 11.447 1.453 11.825 2.059L11.921 2.213L12.075 2.175C12.2657 2.125 12.4563 2.08333 12.647 2.05C12.8377 2.01667 13.036 2 13.242 2C14.2873 2 15.175 2.36267 15.905 3.088C16.635 3.81333 17 4.69867 17 5.744C17 6.51733 16.7877 7.22167 16.363 7.857C15.939 8.49233 15.3757 8.98233 14.673 9.327V13.769L2.327 13.77ZM10.405 10.443C10.5463 10.443 10.665 10.395 10.761 10.299C10.857 10.203 10.9047 10.0843 10.904 9.943V7.117C10.904 6.975 10.856 6.856 10.76 6.76C10.664 6.66467 10.545 6.617 10.403 6.617C10.261 6.617 10.1423 6.66467 10.047 6.76C9.95167 6.85533 9.904 6.97433 9.904 7.117V9.943C9.904 10.085 9.952 10.204 10.048 10.3C10.144 10.396 10.263 10.4437 10.405 10.443ZM3.942 18C3.498 18 3.118 17.8417 2.802 17.525C2.486 17.2083 2.32767 16.8283 2.327 16.385V14.769H14.673V16.388C14.673 16.8333 14.515 17.2133 14.199 17.528C13.8823 17.8427 13.502 18 13.058 18H3.942Z" fill="#3C3C3C"/>
</svg>
