<svg width="16" height="14" viewBox="0 0 16 14" fill="none" xmlns="http://www.w3.org/2000/svg">
<path d="M7.99989 0C8.18322 0 8.35822 0.0738281 8.48322 0.205078L12.4832 4.36133L12.4971 4.375H14.6666C15.1582 4.375 15.5554 4.76602 15.5554 5.25C15.5554 5.64648 15.2888 5.98008 14.9221 6.08945L13.6416 11.7551C13.461 12.5562 12.7388 13.125 11.9054 13.125H4.09156C3.25822 13.125 2.536 12.5562 2.35545 11.7551L1.07767 6.08945C0.711003 5.98281 0.444336 5.64648 0.444336 5.25C0.444336 4.76602 0.841558 4.375 1.33322 4.375H3.50267L3.51656 4.36133L7.51656 0.205078C7.64156 0.0738281 7.81656 0 7.99989 0ZM7.99989 1.61055L5.33878 4.375H10.661L7.99989 1.61055ZM5.77767 7.21875C5.77767 6.85508 5.48045 6.5625 5.111 6.5625C4.74156 6.5625 4.44434 6.85508 4.44434 7.21875V10.2812C4.44434 10.6449 4.74156 10.9375 5.111 10.9375C5.48045 10.9375 5.77767 10.6449 5.77767 10.2812V7.21875ZM7.99989 6.5625C7.63045 6.5625 7.33322 6.85508 7.33322 7.21875V10.2812C7.33322 10.6449 7.63045 10.9375 7.99989 10.9375C8.36934 10.9375 8.66656 10.6449 8.66656 10.2812V7.21875C8.66656 6.85508 8.36934 6.5625 7.99989 6.5625ZM11.5554 7.21875C11.5554 6.85508 11.2582 6.5625 10.8888 6.5625C10.5193 6.5625 10.2221 6.85508 10.2221 7.21875V10.2812C10.2221 10.6449 10.5193 10.9375 10.8888 10.9375C11.2582 10.9375 11.5554 10.6449 11.5554 10.2812V7.21875Z" fill="#171717"/>
</svg>
