<svg width="119" height="119" viewBox="0 0 119 119" fill="none" xmlns="http://www.w3.org/2000/svg">
<path d="M72.4447 46.196C73.4403 43.7294 74.8561 42.2521 75.6351 41.3372L77.7493 42.1906L84.4761 34.6616L87.295 35.7994L89.4283 30.514L57.716 17.7139L55.5827 22.9993L58.4016 24.1371L58.0172 34.2261L60.1313 35.0794C60.4094 36.4209 60.0506 38.3249 59.0551 40.7915C57.2062 45.3721 35.7905 56.8065 30.2438 70.5485L27.3993 77.5957C25.4082 82.5287 33.6418 89.54 45.2697 94.2333C56.8975 98.9267 67.6912 99.5955 69.6823 94.6625L72.5268 87.6153C78.0735 73.8734 70.5958 50.7766 72.4447 46.196ZM55.0831 69.9206C53.2141 69.1662 51.7213 67.7002 50.9331 65.8452C50.145 63.9901 50.126 61.898 50.8804 60.029C51.6348 58.1599 53.1008 56.6671 54.9558 55.879C56.8109 55.0908 58.903 55.0719 60.7721 55.8263C62.6411 56.5807 64.1339 58.0466 64.922 59.9017C65.7102 61.7567 65.7292 63.8489 64.9748 65.7179C64.2203 67.5869 62.7544 69.0797 60.8993 69.8679C59.0443 70.656 56.9521 70.675 55.0831 69.9206Z" fill="#292929"/>
<circle cx="37" cy="28" r="6" fill="#E5E5E5"/>
<circle cx="16.5" cy="51.5" r="7.5" fill="#E5E5E5"/>
<circle cx="100" cy="64" r="12" fill="#E5E5E5"/>
</svg>
