<svg width="117" height="88" viewBox="0 0 117 88" fill="none" xmlns="http://www.w3.org/2000/svg">
<path d="M74.9879 8.11253C74.8983 7.69262 74.6674 7.31618 74.3336 7.0461C73.9999 6.77601 73.5835 6.62866 73.1542 6.62866C72.7248 6.62866 72.3085 6.77601 71.9747 7.0461C71.6409 7.31618 71.41 7.69262 71.3204 8.11253C70.7404 10.8525 69.9454 12.7 68.8454 14.015C67.7729 15.305 66.2729 16.2475 63.9704 16.93C63.5829 17.045 63.243 17.2822 63.0013 17.6061C62.7595 17.93 62.6289 18.3233 62.6289 18.7275C62.6289 19.1317 62.7595 19.5251 63.0013 19.849C63.243 20.1729 63.5829 20.41 63.9704 20.525C66.1829 21.18 67.6704 22.0675 68.7604 23.3375C69.8704 24.6275 70.7154 26.4875 71.3204 29.3425C71.41 29.7624 71.6409 30.1389 71.9747 30.409C72.3085 30.679 72.7248 30.8264 73.1542 30.8264C73.5835 30.8264 73.9999 30.679 74.3336 30.409C74.6674 30.1389 74.8983 29.7624 74.9879 29.3425C75.5929 26.485 76.4379 24.6275 77.5479 23.3375C78.6379 22.0675 80.1229 21.18 82.3404 20.525C82.7279 20.41 83.0678 20.1729 83.3096 19.849C83.5513 19.5251 83.6819 19.1317 83.6819 18.7275C83.6819 18.3233 83.5513 17.93 83.3096 17.6061C83.0678 17.2822 82.7279 17.045 82.3404 16.93C80.1254 16.275 78.6379 15.3875 77.5479 14.1175C76.4379 12.8275 75.5929 10.9675 74.9879 8.11253ZM95.7454 16.24C95.6466 15.8312 95.4131 15.4674 95.0826 15.2072C94.752 14.9471 94.3436 14.8056 93.9229 14.8056C93.5023 14.8056 93.0938 14.9471 92.7633 15.2072C92.4327 15.4674 92.1993 15.8312 92.1004 16.24C90.7154 21.97 89.2479 25.425 87.1704 27.835C85.1204 30.215 82.3029 31.775 77.7454 33.315C77.3739 33.4406 77.0511 33.6795 76.8225 33.9982C76.5938 34.3168 76.4709 34.6991 76.4709 35.0913C76.4709 35.4834 76.5938 35.8657 76.8225 36.1844C77.0511 36.503 77.3739 36.7419 77.7454 36.8675C82.5054 38.475 85.3604 40.1725 87.3754 42.5975C89.4229 45.0625 90.7804 48.485 92.1004 53.94C92.1993 54.3489 92.4327 54.7127 92.7633 54.9728C93.0938 55.233 93.5023 55.3744 93.9229 55.3744C94.3436 55.3744 94.752 55.233 95.0826 54.9728C95.4131 54.7127 95.6466 54.3489 95.7454 53.94C97.1304 48.2125 98.6004 44.7575 100.675 42.3475C102.725 39.9675 105.543 38.4075 110.1 36.8675C110.472 36.7419 110.795 36.503 111.023 36.1844C111.252 35.8657 111.375 35.4834 111.375 35.0913C111.375 34.6991 111.252 34.3168 111.023 33.9982C110.795 33.6795 110.472 33.4406 110.1 33.315C105.333 31.705 102.483 30.015 100.47 27.59C98.4254 25.13 97.0704 21.71 95.7454 16.24Z" fill="#E6E6E6"/>
<path d="M61.653 9.97271L31.0217 25.5422L32.5862 29.7847L64.6048 17.9774L65.5888 20.6456L33.5702 32.4529L38.4899 45.794L70.5085 33.9867C72.2895 38.8162 72.3921 43.7796 70.8964 48.8474C69.4008 53.9152 66.6311 58.2405 62.6168 61.9032L64.3387 66.5725L42.9929 74.4441L41.271 69.7747C35.8665 69.5853 30.9152 68.077 26.4973 65.2202C22.0793 62.3635 18.9251 58.4951 17.1441 53.6656L25.1488 50.7138L17.2772 29.368L60.6691 7.30449L61.653 9.97271ZM20.8113 30.7321L21.9133 33.7205L24.5816 32.7365L23.3812 29.4813L20.8113 30.7321ZM22.8973 36.3887L27.817 49.7298L30.4852 48.7459L25.5655 35.4048L22.8973 36.3887ZM35.8217 46.778L30.9019 33.4369L28.2337 34.4208L33.1535 47.7619L35.8217 46.778ZM29.918 30.7687L28.4913 26.8997L25.9116 28.1238L27.2498 31.7526L29.918 30.7687Z" fill="#292929"/>
</svg>
