<svg width="79" height="65" viewBox="0 0 79 65" fill="none" xmlns="http://www.w3.org/2000/svg">
<path d="M68 21H74C76.7614 21 79 23.2386 79 26C79 28.7614 76.7614 31 74 31H68V52.0771C67.9999 59.2143 62.2373 65 55.1289 65H23.8711C16.7627 65 11.0001 59.2143 11 52.0771V31H5C2.23858 31 0 28.7614 0 26C0 23.2386 2.23858 21 5 21H11V17H68V21Z" fill="white"/>
<path d="M39.9902 0C40.8897 -3.93167e-08 41.6191 0.729454 41.6191 1.62891V3.94043C52.5156 4.26174 62.0643 7.10983 68.0029 13.3555H11C17.1155 6.92369 27.0597 4.09368 38.3613 3.91699V1.62891C38.3614 0.729515 39.0909 9.86206e-05 39.9902 0Z" fill="white"/>
</svg>
