<svg width="50" height="33" viewBox="0 0 50 33" fill="none" xmlns="http://www.w3.org/2000/svg">
<path d="M42.014 13.9198C40.9853 13.0019 39.737 12.3886 38.4067 12.1136C38.3184 10.2552 37.9243 8.41305 37.2286 6.66895C40.3124 6.75119 43.272 7.92389 45.5773 9.98089C50.9314 14.7584 51.3782 22.9428 46.5622 28.2665C44.2516 30.8206 41.0132 32.3578 37.5661 32.5409L29.2015 32.9853C25.7545 33.1684 22.3694 31.9832 19.7977 29.6884C14.4435 24.9109 13.9968 16.7265 18.8128 11.4028C18.8963 11.3105 18.9798 11.2181 19.0696 11.1313C20.086 10.0696 21.7709 10.027 22.8399 11.0365C23.9089 12.046 23.9519 13.7193 22.9354 14.781L22.7906 14.9411C19.9456 18.086 20.2061 22.9233 23.3727 25.7489C24.891 27.1036 26.8873 27.806 28.9344 27.6973L37.299 27.2529C39.3343 27.1448 41.2556 26.2342 42.6196 24.7263C45.4647 21.5814 45.2042 16.7442 42.0375 13.9186L42.014 13.9198ZM28.768 10.6981C28.6948 10.5438 28.6383 10.3711 28.5998 10.2032C28.1808 9.10645 27.4945 8.08247 26.5587 7.24751C25.0405 5.89277 23.0441 5.19032 20.9971 5.29907L12.6325 5.74345C10.5972 5.85157 8.67593 6.76215 7.31186 8.27002C4.46679 11.415 4.72733 16.2522 7.89397 19.0778C8.91647 19.9902 10.1592 20.6096 11.4895 20.8846C11.5778 22.743 11.9719 24.5852 12.6738 26.3348C9.59558 26.2464 6.63657 25.0854 4.32511 23.0229C-1.02906 18.2454 -1.47577 10.061 3.34024 4.73726C5.65081 2.18312 8.88923 0.645983 12.3363 0.462857L20.7009 0.018478C24.1479 -0.164649 27.533 1.02061 30.1047 3.31537C35.4713 8.10396 35.8722 16.3142 31.0673 21.6256L30.8502 21.8656C29.8399 22.9329 28.155 22.9755 27.0805 21.9722C26.0059 20.9688 25.9629 19.2955 26.9732 18.2283L27.1012 18.0867C28.9775 16.0126 29.5101 13.1956 28.7569 10.7104L28.768 10.6981Z" fill="url(#paint0_linear_137_837)"/>
<defs>
<linearGradient id="paint0_linear_137_837" x1="37.4283" y1="2.70953" x2="12.6636" y2="30.4633" gradientUnits="userSpaceOnUse">
<stop stop-color="#C43D3D"/>
<stop offset="1" stop-color="#4759E4"/>
</linearGradient>
</defs>
</svg>
