<svg width="10" height="12" viewBox="0 0 10 12" fill="none" xmlns="http://www.w3.org/2000/svg">
<path d="M3.33333 1.14286V0H6.66667V1.14286H3.33333ZM4.44444 7.42857H5.55556V4H4.44444V7.42857ZM5 12C4.31481 12 3.66889 11.8644 3.06222 11.5931C2.45556 11.3219 1.92556 10.9528 1.47222 10.4857C1.01889 10.0187 0.660185 9.47333 0.396111 8.84971C0.132037 8.22609 0 7.5619 0 6.85714C0 6.15238 0.132037 5.488 0.396111 4.864C0.660185 4.24 1.01889 3.69486 1.47222 3.22857C1.92556 2.76229 2.45574 2.39333 3.06278 2.12171C3.66981 1.85009 4.31556 1.71429 5 1.71429C5.57407 1.71429 6.125 1.80952 6.65278 2C7.18056 2.19048 7.67593 2.46667 8.13889 2.82857L8.91667 2.02857L9.69445 2.82857L8.91667 3.62857C9.26852 4.10476 9.53704 4.61428 9.72222 5.15714C9.90741 5.7 10 6.26666 10 6.85714C10 7.5619 9.86796 8.22628 9.60389 8.85028C9.33982 9.47428 8.98111 10.0194 8.52778 10.4857C8.07445 10.952 7.54426 11.3211 6.93722 11.5931C6.33019 11.8651 5.68444 12.0008 5 12Z" fill="#3C3C3C"/>
</svg>
